<svg width="560" height="260" viewBox="0 0 560 260" fill="none" xmlns="http://www.w3.org/2000/svg">
  <rect width="560" height="260" rx="24" fill="#0F172A"/>
  <rect x="20" y="20" width="520" height="220" rx="20" fill="#1C1626" stroke="#4C1D95"/>
  <text x="34" y="56" fill="#F8FAFC" font-family="Segoe UI, Arial, sans-serif" font-size="24" font-weight="800">ui-validation</text>
  <text x="34" y="84" fill="#C4B5FD" font-family="Segoe UI, Arial, sans-serif" font-size="16">For browser-visible flows, rendered state checks, and verdict artifacts</text>
  <rect x="42" y="118" width="214" height="96" rx="18" fill="#111C32" stroke="#3B82F6"/>
  <rect x="56" y="134" width="186" height="16" rx="8" fill="#1E293B"/>
  <circle cx="72" cy="142" r="4" fill="#F87171"/>
  <circle cx="86" cy="142" r="4" fill="#FBBF24"/>
  <circle cx="100" cy="142" r="4" fill="#34D399"/>
  <rect x="66" y="164" width="88" height="34" rx="10" fill="#7C3AED"/>
  <rect x="164" y="164" width="60" height="10" rx="5" fill="#94A3B8"/>
  <rect x="164" y="182" width="46" height="10" rx="5" fill="#475569"/>
  <rect x="286" y="118" width="108" height="96" rx="18" fill="#152C2C" stroke="#15803D"/>
  <text x="307" y="160" fill="#A7F3D0" font-family="Segoe UI, Arial, sans-serif" font-size="18" font-weight="800">screenshots</text>
  <text x="307" y="185" fill="#DCFCE7" font-family="Segoe UI, Arial, sans-serif" font-size="15">traceable proof</text>
  <rect x="416" y="118" width="102" height="96" rx="18" fill="#241A12" stroke="#D97706"/>
  <text x="438" y="160" fill="#FDE68A" font-family="Segoe UI, Arial, sans-serif" font-size="18" font-weight="800">verdicts</text>
  <text x="438" y="185" fill="#FEF3C7" font-family="Segoe UI, Arial, sans-serif" font-size="15">pass or fail</text>
</svg>
